<svg width="32" height="24" viewBox="0 0 32 24" fill="none" xmlns="http://www.w3.org/2000/svg">
<path d="M32 2.00025V22.0003C32 23.1353 31.135 24.0003 30 24.0003H28V5.84925L16 14.4693L4 5.84925V24.0003H2C0.865 24.0003 0 23.1353 0 22.0003V2.00025C0 1.43225 0.214 0.932252 0.573 0.578252C0.759973 0.391179 0.98265 0.243609 1.22779 0.144315C1.47294 0.0450201 1.73554 -0.00397184 2 0.000251575H2.667L16 9.66725L29.333 0.000251575H30C30.568 0.000251575 31.068 0.214252 31.427 0.578252C31.786 0.932252 32 1.43225 32 2.00025Z" fill="black"/>
</svg>
